<?xml version="1.0" encoding="UTF-8"?>
<svg xmlns="http://www.w3.org/2000/svg" xmlns:xlink="http://www.w3.org/1999/xlink" width="150pt" height="150pt" viewBox="0 0 150 150" version="1.1">
<g id="surface1">
<path style=" stroke:none;fill-rule:nonzero;fill:rgb(0%,0%,0%);fill-opacity:1;" d="M 103.4375 25.78125 C 102.84375 26.21875 102 27.09375 101.5625 27.75 L 100.78125 28.9375 L 98.4375 28.53125 C 89.40625 27 76.78125 26.4375 68.8125 27.15625 C 54.46875 28.5 40.34375 32.625 26.90625 39.34375 L 23.84375 40.90625 L 23.46875 39.21875 C 23 37.1875 21.96875 36.0625 20.3125 35.78125 C 18.46875 35.46875 16.90625 36.34375 16 38.15625 C 15.34375 39.5 13.40625 47.625 13.3125 49.5 C 13.25 50.75 13.90625 50.875 20.4375 51 C 26.28125 51.09375 27.03125 50.9375 28.40625 49.1875 C 29.46875 47.84375 29.28125 46.375 27.90625 45.03125 C 27.25 44.40625 26.40625 43.6875 26 43.4375 C 25.28125 42.96875 25.375 42.90625 29.4375 40.875 C 34.0625 38.5625 40.75 35.78125 44.71875 34.53125 C 61.875 29.125 80.6875 27.78125 97.28125 30.8125 C 99.5625 31.21875 100 31.40625 99.875 31.84375 C 99.34375 33.5625 99.0625 35.53125 99.21875 36.28125 C 99.46875 37.4375 101.0625 38.75 102.1875 38.75 C 103.90625 38.75 105 36.375 104.4375 33.84375 L 104.125 32.5 L 104.96875 32.71875 C 105.40625 32.8125 106.25 33.09375 106.78125 33.34375 C 107.71875 33.71875 107.78125 33.8125 107.46875 34.625 C 107.28125 35.09375 107.0625 36.78125 106.96875 38.34375 C 106.8125 40.65625 106.90625 41.53125 107.3125 42.65625 C 108.15625 44.84375 109.90625 45.8125 111.71875 45.125 C 113.34375 44.5 113.96875 39.875 112.84375 36.90625 L 112.25 35.34375 L 113.875 36.0625 L 115.46875 36.75 L 115.46875 41.28125 C 115.46875 45.34375 115.53125 45.9375 116.21875 47.4375 C 117.15625 49.5 118.4375 50.625 119.875 50.625 C 121.3125 50.625 122.0625 49.78125 122.5 47.625 C 122.90625 45.6875 122.75 43.59375 122.03125 41.5625 C 121.59375 40.375 121.625 40.3125 122.15625 40.625 C 122.5 40.78125 123.34375 41.875 124.0625 43.03125 C 127.28125 48.125 130.0625 49.9375 131.90625 48.09375 C 132.46875 47.53125 132.5625 47.15625 132.4375 45.875 C 132.125 42.65625 129.28125 40.1875 124.90625 39.21875 C 123.96875 39.03125 124.03125 38.4375 124.96875 38.4375 C 126.0625 38.4375 129.4375 36.5 130.03125 35.5 C 131.21875 33.53125 130.53125 31.4375 128.59375 31.0625 C 127.0625 30.78125 124.78125 31.59375 121.34375 33.625 C 119.78125 34.5625 118.40625 35.3125 118.3125 35.3125 C 118.1875 35.3125 117.1875 34.875 116.03125 34.375 L 113.9375 33.4375 L 115.9375 32.25 C 118.84375 30.5625 120.3125 29.03125 120.3125 27.65625 C 120.3125 26.0625 119.34375 25.1875 117.8125 25.40625 C 116.09375 25.625 114.71875 26.375 112.34375 28.375 C 108.53125 31.625 108.96875 31.40625 107.375 30.9375 C 106.59375 30.71875 105.9375 30.46875 105.9375 30.40625 C 105.9375 30.3125 106.375 29.75 106.875 29.15625 C 109.3125 26.40625 106.40625 23.59375 103.4375 25.78125 Z M 103.4375 25.78125 "/>
<path style=" stroke:none;fill-rule:nonzero;fill:rgb(0%,0%,0%);fill-opacity:1;" d="M 28.5625 59.5625 C 27.46875 59.9375 24.0625 62.9375 24.0625 63.53125 C 24.0625 63.65625 23.75 64.1875 23.40625 64.6875 C 22.96875 65.28125 22.78125 65.84375 22.875 66.40625 C 23 67 22.9375 67.1875 22.625 67.0625 C 22.375 66.96875 22.21875 67.09375 22.25 67.4375 C 22.28125 67.71875 22.25 68.375 22.21875 68.90625 C 22.1875 69.59375 22.09375 69.71875 21.90625 69.375 C 21.71875 69.125 21.6875 68.8125 21.75 68.6875 C 21.84375 68.5625 21.78125 68.4375 21.59375 68.4375 C 21.25 68.4375 20.90625 69.5 21 70.3125 C 21.09375 71.40625 20.90625 72.1875 20.5625 72.125 C 20.375 72.0625 20.125 72.3125 20.0625 72.65625 C 20 73 19.71875 73.75 19.46875 74.3125 C 19.21875 74.84375 19.0625 75.625 19.125 76.03125 C 19.25 76.625 18.78125 77.5 18.375 77.5 C 18.03125 77.5 18.1875 73.6875 18.59375 72.625 C 19.4375 70.375 19.84375 66.3125 19.375 64.875 C 18.90625 63.40625 17.40625 62.1875 16.09375 62.1875 C 14.875 62.1875 14.28125 62.78125 14.53125 63.8125 C 14.96875 65.5 14.78125 70.5625 14.03125 78.28125 C 13.84375 80.15625 13.6875 82.28125 13.71875 82.96875 C 13.71875 83.65625 13.71875 85.375 13.71875 86.78125 C 13.71875 88.34375 13.90625 89.75 14.1875 90.4375 C 14.625 91.5 14.71875 91.5625 16.21875 91.5625 C 17.71875 91.5625 17.78125 91.53125 18.65625 90.15625 C 19.34375 89 19.65625 88.78125 20.15625 88.9375 C 20.5 89.0625 21.53125 89.21875 22.46875 89.28125 C 24.28125 89.4375 26.5625 88.6875 26.5625 87.90625 C 26.5625 87.6875 26.90625 87.34375 27.34375 87.1875 C 27.84375 87 28.125 86.65625 28.125 86.21875 C 28.125 85.84375 28.375 85.5 28.71875 85.40625 C 29.125 85.3125 29.4375 84.78125 29.6875 83.75 C 30.09375 82.09375 31.25 80.625 31.25 81.75 C 31.25 82.25 31.3125 82.28125 31.5625 81.875 C 31.71875 81.625 31.875 81.09375 31.875 80.71875 C 31.875 80.34375 32.21875 79.625 32.65625 79.125 C 33.09375 78.59375 33.4375 78.03125 33.4375 77.84375 C 33.4375 77.65625 33.59375 77.5 33.75 77.5 C 33.9375 77.5 34.0625 77.15625 34.0625 76.75 C 34.0625 76.34375 34.28125 75.84375 34.5 75.625 C 34.78125 75.40625 34.96875 74.71875 34.96875 73.96875 C 34.9375 73.25 35.09375 71.625 35.3125 70.375 C 35.53125 69.125 35.5625 67.71875 35.4375 67.25 C 35.3125 66.78125 35.25 66.1875 35.28125 65.90625 C 35.3125 65.65625 35.125 65 34.84375 64.5 C 34.59375 64 34.375 63.375 34.375 63.0625 C 34.375 62.78125 34.0625 62.15625 33.6875 61.71875 C 31.65625 59.28125 30.625 58.84375 28.5625 59.5625 Z M 30.40625 62.40625 C 31.21875 63.34375 32.59375 67.53125 32.5 68.90625 C 32.4375 70.1875 32.21875 71.90625 32.03125 72.46875 C 31.875 73 31.96875 73.125 32.5625 73.15625 C 33.25 73.1875 33.25 73.1875 32.4375 73.46875 C 31.78125 73.71875 31.5 74.15625 31.09375 75.5 C 30.8125 76.46875 30.6875 77.5 30.78125 77.8125 C 30.875 78.125 30.8125 78.46875 30.625 78.59375 C 30.46875 78.6875 30.3125 79.0625 30.3125 79.375 C 30.3125 80.5 28.65625 83.75 28.0625 83.75 C 27.78125 83.75 27.40625 83.9375 27.28125 84.1875 C 27.15625 84.4375 26.5625 85.125 26 85.75 C 25.09375 86.75 24.8125 86.875 23.5 86.875 C 22.25 86.875 21.875 86.71875 21.25 86 C 20.8125 85.5 20.28125 85.03125 20.0625 84.96875 C 19.71875 84.84375 19.71875 84.4375 20 82.71875 C 20.21875 81.5625 20.5 80.625 20.65625 80.625 C 20.8125 80.625 20.875 80.28125 20.75 79.84375 C 20.625 79.375 20.6875 79.0625 20.90625 79.0625 C 21.125 79.0625 21.25 78.1875 21.25 76.59375 C 21.25 74.75 21.375 74.03125 21.75 73.71875 C 22.09375 73.4375 22.21875 72.90625 22.125 72 C 22.0625 71.125 22.15625 70.75 22.375 70.84375 C 22.8125 71 24.0625 68.53125 24.0625 67.5625 C 24.0625 67.1875 24.1875 66.875 24.34375 66.875 C 24.5 66.875 24.6875 66.625 24.8125 66.3125 C 25.0625 65.5 25.71875 64.59375 26.34375 64.125 C 26.625 63.90625 26.875 63.53125 26.875 63.3125 C 26.875 62.90625 28.59375 61.9375 29.40625 61.90625 C 29.6875 61.875 30.125 62.125 30.40625 62.40625 Z M 30.40625 62.40625 "/>
<path style=" stroke:none;fill-rule:nonzero;fill:rgb(0%,0%,0%);fill-opacity:1;" d="M 69.03125 60.90625 C 67.53125 62.15625 66.1875 64.15625 66.4375 64.78125 C 66.65625 65.40625 67.78125 65.46875 68.5 64.90625 C 69.125 64.4375 71.25 60.9375 71.25 60.375 C 71.25 59.71875 70.1875 59.96875 69.03125 60.90625 Z M 69.03125 60.90625 "/>
<path style=" stroke:none;fill-rule:nonzero;fill:rgb(0%,0%,0%);fill-opacity:1;" d="M 90.125 67.46875 C 89.59375 67.8125 88.65625 68.71875 88.09375 69.53125 L 87.03125 71 L 86.59375 69.875 C 86.09375 68.59375 85.21875 68.21875 83.84375 68.65625 C 82.71875 69 80.5625 73.03125 79.96875 75.78125 C 79.75 76.8125 79.28125 78.0625 78.9375 78.59375 C 78.59375 79.09375 78.0625 79.90625 77.78125 80.34375 C 77.46875 80.78125 77.0625 81.78125 76.875 82.53125 C 76.6875 83.28125 76.3125 84.34375 76.0625 84.90625 C 75.8125 85.4375 75.28125 87.25 74.84375 88.90625 C 74.40625 90.59375 73.875 92.25 73.6875 92.59375 C 73.34375 93.25 73.34375 93.25 73.0625 92.5 C 72.46875 90.875 72.65625 84.21875 73.4375 80.625 C 74 77.9375 74.6875 72.84375 74.6875 71.28125 C 74.6875 70.28125 74.5 69.5625 74.1875 69.25 C 73.15625 68.1875 70.78125 68.875 68.65625 70.875 C 68.03125 71.46875 67.65625 71.625 67.375 71.40625 C 65.5 70.03125 65.15625 69.875 63.71875 69.90625 C 62.03125 69.9375 61.5625 70.21875 60.25 72 C 59.5 73.03125 59.1875 73.21875 58 73.34375 C 57.25 73.40625 55.625 73.78125 54.375 74.21875 C 53.125 74.65625 52 74.90625 51.875 74.84375 C 51.71875 74.75 51.5 74.25 51.40625 73.71875 C 50.84375 71.15625 47.1875 68.75 43.875 68.75 C 41.40625 68.75 40.09375 69.21875 39.53125 70.34375 C 38.90625 71.5 38.9375 74.1875 39.5625 75.84375 C 40.0625 77.09375 40.03125 77.3125 39.53125 79.125 C 38.40625 83.09375 38.96875 86.25 41.15625 88.5 C 43.3125 90.6875 45.6875 90.3125 48.34375 87.375 C 50.125 85.40625 50.9375 83.59375 51.75 79.6875 C 52.28125 77.3125 52.90625 76.59375 55.46875 75.65625 C 58.46875 74.53125 58.5 74.59375 57.3125 77.71875 C 56.75 79.25 56.28125 80.84375 56.25 81.3125 C 56.25 81.78125 56.125 82.25 55.9375 82.34375 C 55.78125 82.4375 55.625 82.875 55.625 83.28125 C 55.625 83.6875 55.78125 84.125 55.9375 84.21875 C 56.125 84.3125 56.25 84.71875 56.25 85.125 C 56.25 86.78125 59.21875 88.09375 60.75 87.09375 C 61.15625 86.8125 62.28125 85.03125 63.28125 83.0625 C 64.28125 81.125 65.4375 79.125 65.8125 78.65625 C 66.21875 78.15625 66.5625 77.5625 66.5625 77.28125 C 66.5625 77.03125 67.09375 76.28125 67.75 75.65625 C 68.40625 75 69.25 74.09375 69.625 73.59375 C 70.375 72.625 71.5 72.6875 71.0625 73.6875 C 70.9375 73.96875 70.75 75.15625 70.625 76.28125 C 70.5 77.40625 70.34375 78.46875 70.21875 78.625 C 70.125 78.78125 69.875 81.5 69.6875 84.65625 C 69.40625 88.875 69.375 90.4375 69.65625 90.71875 C 69.84375 90.90625 70 91.6875 70 92.40625 C 70 95 71.5 96.84375 73.65625 96.875 C 74.78125 96.875 75.03125 96.75 75.59375 95.8125 C 75.96875 95.25 76.25 94.375 76.25 93.875 C 76.25 93.375 76.46875 92.1875 76.75 91.25 C 77 90.3125 77.375 88.96875 77.5625 88.28125 C 78.0625 86.4375 78.28125 86.40625 78.3125 88.125 C 78.34375 89.84375 78.8125 90.625 79.875 90.625 C 80.8125 90.625 81.40625 89.71875 82.21875 87.0625 C 84.875 78.21875 86.3125 74.84375 88.4375 72.40625 C 89.15625 71.59375 89.84375 70.9375 89.96875 70.9375 C 90.125 70.9375 90.3125 71.625 90.40625 72.5 C 90.5 73.34375 90.75 74.34375 90.9375 74.6875 C 91.28125 75.3125 92.5 75.5625 92.5 75 C 92.5 74.84375 92.9375 74.21875 93.46875 73.59375 C 94.59375 72.3125 94.9375 70.59375 94.375 68.9375 C 93.71875 66.9375 92 66.34375 90.125 67.46875 Z M 46.28125 71.34375 C 47.21875 71.96875 49.375 75 49.375 75.6875 C 49.375 76.0625 48.0625 76.78125 46.9375 77.03125 L 45.90625 77.25 L 46.09375 76.15625 C 46.28125 75.21875 46.1875 74.96875 45.53125 74.53125 C 44.4375 73.84375 42.625 73.59375 42.03125 74.0625 C 41.28125 74.6875 41.40625 72.46875 42.21875 71.4375 C 43.0625 70.375 44.78125 70.34375 46.28125 71.34375 Z M 66.5625 73.09375 C 66.5625 73.28125 65.8125 74.21875 64.90625 75.21875 C 64 76.21875 62.5625 78 61.75 79.15625 C 60.9375 80.34375 60.1875 81.21875 60.125 81.15625 C 59.875 80.90625 61.34375 77.375 62.34375 75.75 C 62.90625 74.875 63.75 73.875 64.21875 73.5 C 65.09375 72.8125 66.5625 72.5625 66.5625 73.09375 Z M 49.40625 78.8125 C 49.5625 80.5 47.375 84.90625 45.84375 86.0625 C 45.03125 86.65625 45 86.65625 44.375 86.09375 C 43.875 85.625 43.75 85.125 43.75 83.40625 C 43.75 80.6875 44.09375 79.75 45.21875 79.53125 C 45.6875 79.4375 46.71875 79.15625 47.5 78.9375 C 49.3125 78.375 49.375 78.375 49.40625 78.8125 Z M 49.40625 78.8125 "/>
<path style=" stroke:none;fill-rule:nonzero;fill:rgb(0%,0%,0%);fill-opacity:1;" d="M 97.375 68.8125 C 96.15625 70.75 95.65625 78.375 96.625 80.15625 C 97.34375 81.53125 98.21875 82.1875 99.5 82.40625 C 100.84375 82.625 101.6875 82.03125 102.34375 80.375 C 102.78125 79.40625 103.9375 77.875 106.1875 75.375 C 107.78125 73.59375 108.0625 74.53125 107.3125 78.8125 C 107.1875 79.625 107.25 80 107.46875 80 C 107.75 80 107.75 80.15625 107.5 80.65625 C 107.28125 81 106.9375 82 106.6875 82.84375 C 106.375 83.84375 105.5625 85.15625 104.40625 86.5625 C 102.03125 89.375 100.25 92.375 98.6875 96.15625 C 97.65625 98.65625 97.375 99.6875 97.25 101.8125 L 97.09375 104.40625 L 98.46875 105.65625 C 99.78125 106.875 99.90625 106.9375 101.5 106.8125 C 102.84375 106.6875 103.34375 106.46875 104.21875 105.625 C 105.90625 104 107.75 98.15625 108.25 92.875 C 108.3125 92.3125 108.4375 91.78125 108.5625 91.65625 C 108.84375 91.34375 108.78125 89.4375 108.46875 89.25 C 108.3125 89.15625 108.625 88.21875 109.15625 87.15625 C 110.34375 84.8125 112.0625 83.34375 117.25 80.28125 L 118.71875 79.40625 L 118.53125 81.96875 C 118.375 84.1875 118.4375 84.75 119.0625 86.1875 C 120.4375 89.34375 122.90625 90.625 125.375 89.4375 C 127.40625 88.40625 130.3125 84.5625 130.3125 82.875 C 130.3125 82.5 130.4375 82.15625 130.59375 82.0625 C 130.75 81.9375 131.0625 80.875 131.28125 79.65625 C 131.59375 77.875 131.8125 77.34375 132.5 76.875 C 133.59375 76.09375 136.40625 75 137.28125 75 C 137.6875 75 138.28125 74.8125 138.59375 74.5625 C 139.09375 74.1875 139.125 74.0625 138.78125 73.625 C 138.28125 73 136.78125 73.1875 133.625 74.28125 C 131.4375 75 130.96875 74.9375 130.9375 73.875 C 130.9375 73.71875 130.5 72.90625 130 72.09375 C 128.71875 70.09375 126.03125 68.75 123.25 68.75 C 120.59375 68.75 119.53125 69.1875 118.90625 70.53125 C 118.375 71.625 118.375 74.4375 118.875 75.625 C 119 75.96875 118.4375 76.40625 116.5625 77.28125 C 115.1875 77.96875 113.96875 78.625 113.875 78.78125 C 113.625 79.21875 111.21875 80.375 111 80.15625 C 110.90625 80.0625 111 79.375 111.1875 78.65625 C 111.40625 77.9375 111.8125 75.8125 112.09375 73.9375 L 112.625 70.53125 L 111.75 69.8125 C 111.15625 69.28125 110.5 69.0625 109.65625 69.0625 C 108.53125 69.0625 108.21875 69.25 106.875 70.6875 C 104.96875 72.75 104.96875 72.75 102.5 74.90625 C 100.1875 76.96875 100.03125 76.84375 100.59375 73.625 C 101.125 70.59375 101.03125 69.59375 100.21875 68.8125 C 99.25 67.90625 97.96875 67.90625 97.375 68.8125 Z M 125.25 71.0625 C 125.71875 71.3125 126.375 71.84375 126.75 72.25 C 127.5 73.09375 128.75 75.21875 128.75 75.625 C 128.75 76.0625 127.5 76.78125 126.3125 77.03125 L 125.28125 77.25 L 125.46875 76.15625 C 125.65625 75.21875 125.5625 74.96875 124.90625 74.53125 C 123.78125 73.8125 122 73.59375 121.34375 74.09375 C 120.875 74.5 120.84375 74.40625 121.03125 73.1875 C 121.125 72.4375 121.4375 71.5625 121.75 71.21875 C 122.375 70.5 124.03125 70.4375 125.25 71.0625 Z M 128.875 79.71875 C 128.8125 81.40625 125.53125 86.5625 124.5 86.5625 C 124.28125 86.5625 123.84375 86.21875 123.5625 85.78125 C 123.15625 85.15625 123.125 84.5625 123.28125 82.65625 C 123.53125 80.0625 123.9375 79.375 125.25 79.34375 C 125.71875 79.34375 126.59375 79.125 127.1875 78.90625 C 128.65625 78.34375 128.90625 78.46875 128.875 79.71875 Z M 106.125 90.84375 C 106 91.6875 105.75 93.1875 105.59375 94.21875 C 105.09375 97.71875 104.9375 98.4375 104.65625 98.625 C 104.5 98.71875 104.375 99.21875 104.375 99.71875 C 104.375 100.84375 101.96875 103.4375 100.90625 103.4375 C 100.25 103.4375 100.21875 103.34375 100.4375 101.25 C 100.53125 100.0625 100.96875 98.15625 101.375 97.03125 C 102.21875 94.71875 105.5625 89.375 106.1875 89.375 C 106.28125 89.375 106.21875 90.03125 106.125 90.84375 Z M 106.125 90.84375 "/>
<path style=" stroke:none;fill-rule:nonzero;fill:rgb(0%,0%,0%);fill-opacity:1;" d="M 119.625 99.25 C 117.78125 99.8125 116.5625 101.1875 116.5625 102.71875 C 116.5625 103.59375 116.8125 104.0625 117.75 104.96875 C 118.375 105.59375 119.25 106.3125 119.65625 106.59375 C 120.34375 107.03125 120.28125 107.09375 116.21875 109.125 C 103.9375 115.25 91.1875 118.90625 77.1875 120.34375 C 68.71875 121.21875 56.3125 120.71875 48.46875 119.15625 L 45.875 118.65625 L 46.0625 117.375 C 46.71875 113.375 46.71875 113.53125 45.53125 112.34375 C 43.03125 109.84375 40.46875 112.0625 41.21875 116.0625 C 41.53125 117.6875 41.625 117.65625 39.125 116.78125 C 38.1875 116.4375 38.09375 116.34375 38.25 115.46875 C 38.71875 113.21875 38.8125 108.5 38.46875 107.40625 C 37.375 104.15625 33.625 103.75 32.5 106.75 C 32 108.0625 32.125 111.4375 32.78125 113.09375 L 33.375 114.65625 L 31.75 113.9375 L 30.15625 113.21875 L 30.28125 109.5 C 30.34375 106.59375 30.25 105.3125 29.8125 103.78125 C 28.78125 100.03125 25.90625 98.1875 24.09375 100.09375 C 22.8125 101.5 22.625 105.9375 23.75 108.90625 C 24.34375 110.5 23.125 109.28125 21.09375 106.25 C 18.8125 102.8125 17.03125 101.25 15.40625 101.25 C 14.125 101.25 13.125 102.1875 13.125 103.34375 C 13.125 106.8125 15.78125 109.5 20.25 110.625 C 21.53125 110.96875 21.8125 111.5625 20.65625 111.5625 C 19.5625 111.5625 16.1875 113.5 15.59375 114.5 C 14.4375 116.375 15.0625 118.5 16.875 118.90625 C 18.4375 119.25 20.65625 118.5 24.0625 116.53125 C 27.53125 114.5 27.46875 114.53125 30.125 115.84375 L 31.65625 116.625 L 30.375 117.34375 C 26.65625 119.46875 25.3125 120.875 25.3125 122.65625 C 25.3125 123.09375 25.625 123.75 25.96875 124.09375 C 27.40625 125.53125 30.65625 124.1875 34.71875 120.4375 C 35.71875 119.5 36.75 118.75 36.96875 118.75 C 37.40625 118.75 39.40625 119.375 39.65625 119.5625 C 39.71875 119.625 39.34375 120.15625 38.78125 120.78125 C 37.65625 122.09375 37.53125 123.3125 38.4375 124.3125 C 39.75 125.71875 42.25 124.875 43.90625 122.5 C 44.84375 121.125 45.15625 121.0625 47.84375 121.5625 C 54.875 122.9375 68.15625 123.53125 76.28125 122.84375 C 90.125 121.65625 104.28125 117.6875 117.40625 111.28125 L 121.84375 109.09375 L 122.1875 110.75 C 122.65625 113.0625 123.84375 114.15625 125.875 114.1875 C 128.84375 114.25 129.875 112.78125 131.09375 106.8125 C 131.53125 104.6875 132.03125 102.40625 132.25 101.6875 C 132.9375 99.28125 132.75 99.21875 125.3125 98.9375 C 122.15625 98.8125 120.71875 98.90625 119.625 99.25 Z M 119.625 99.25 "/>
</g>
</svg>
